{
  "accessors": [
    {
      "bufferView": 2,
      "componentType": 5126,
      "count": 5400,
      "max": [
        44.33745193481445,
        -87.40428924560547,
        11.247925758361816
      ],
      "min": [
        -44.39078140258789,
        -142.60638427734375,
        -16.153688430786133
      ],
      "type": "VEC3"
    },
    {
      "bufferView": 2,
      "byteOffset": 64800,
      "componentType": 5126,
      "count": 5400,
      "max": [
        0.9994611144065857,
        0.9998337626457214,
        0.999958336353302
      ],
      "min": [
        -0.9987136721611023,
        -0.999167263507843,
        -0.9998549818992615
      ],
      "type": "VEC3"
    },
    {
      "bufferView": 3,
      "componentType": 5126,
      "count": 5400,
      "max": [
        0.9999793767929077,
        0.9999657273292542,
        0.9994543790817261,
        1.0
      ],
      "min": [
        -0.9999995231628418,
        -0.9998067021369934,
        -0.9996377825737,
        1.0
      ],
      "type": "VEC4"
    },
    {
      "bufferView": 1,
      "componentType": 5126,
      "count": 5400,
      "max": [
        0.9878119826316833,
        0.9793099761009216
      ],
      "min": [
        0.010979999788105488,
        0.00455200020223856
      ],
      "type": "VEC2"
    },
    {
      "bufferView": 0,
      "componentType": 5125,
      "count": 29280,
      "type": "SCALAR"
    }
  ],
  "asset": {
    "extras": {
      "author": "Toxic (https://sketchfab.com/wutianci)",
      "license": "CC-BY-4.0 (http://creativecommons.org/licenses/by/4.0/)",
      "source": "https://sketchfab.com/3d-models/female-sweater-61979161a4424e0a882e309fb4fbd8b8",
      "title": "female sweater"
    },
    "generator": "Sketchfab-14.40.0",
    "version": "2.0"
  },
  "bufferViews": [
    {
      "buffer": 0,
      "byteLength": 117120,
      "name": "floatBufferViews",
      "target": 34963
    },
    {
      "buffer": 0,
      "byteLength": 43200,
      "byteOffset": 117120,
      "byteStride": 8,
      "name": "floatBufferViews",
      "target": 34962
    },
    {
      "buffer": 0,
      "byteLength": 129600,
      "byteOffset": 160320,
      "byteStride": 12,
      "name": "floatBufferViews",
      "target": 34962
    },
    {
      "buffer": 0,
      "byteLength": 86400,
      "byteOffset": 289920,
      "byteStride": 16,
      "name": "floatBufferViews",
      "target": 34962
    }
  ],
  "buffers": [
    {
      "byteLength": 376320,
      "uri": "scene.bin"
    }
  ],
  "images": [
    {
      "uri": "textures/Cloth_F_0007TC_LOW_MAYAlowSG1_baseColor.png"
    },
    {
      "uri": "textures/Cloth_F_0007TC_LOW_MAYAlowSG1_metallicRoughness.png"
    },
    {
      "uri": "textures/Cloth_F_0007TC_LOW_MAYAlowSG1_normal.png"
    }
  ],
  "materials": [
    {
      "doubleSided": true,
      "name": "Cloth_F_0007TC_LOW_MAYAlowSG1",
      "normalTexture": {
        "index": 2
      },
      "occlusionTexture": {
        "index": 1
      },
      "pbrMetallicRoughness": {
        "baseColorTexture": {
          "index": 0
        },
        "metallicFactor": 0.0,
        "metallicRoughnessTexture": {
          "index": 1
        }
      }
    }
  ],
  "meshes": [
    {
      "name": "Object_0",
      "primitives": [
        {
          "attributes": {
            "NORMAL": 1,
            "POSITION": 0,
            "TANGENT": 2,
            "TEXCOORD_0": 3
          },
          "indices": 4,
          "material": 0,
          "mode": 4
        }
      ]
    }
  ],
  "nodes": [
    {
      "children": [
        1
      ],
      "matrix": [
        1.0,
        0.0,
        0.0,
        0.0,
        0.0,
        -1.0,
        1.8824423022811843e-05,
        0.0,
        0.0,
        -1.8824423022811843e-05,
        -1.0,
        0.0,
        0.0,
        0.0,
        0.0,
        1.0
      ],
      "name": "Sketchfab_model"
    },
    {
      "children": [
        2
      ],
      "name": "1111.obj.cleaner.materialmerger.gles"
    },
    {
      "mesh": 0,
      "name": "Object_2"
    }
  ],
  "samplers": [
    {
      "magFilter": 9729,
      "minFilter": 9987,
      "wrapS": 10497,
      "wrapT": 10497
    }
  ],
  "scene": 0,
  "scenes": [
    {
      "name": "Sketchfab_Scene",
      "nodes": [
        0
      ]
    }
  ],
  "textures": [
    {
      "sampler": 0,
      "source": 0
    },
    {
      "sampler": 0,
      "source": 1
    },
    {
      "sampler": 0,
      "source": 2
    }
  ]
}
