{
    "asset" : {
        "generator" : "Khronos glTF Blender I/O v3.4.50",
        "version" : "2.0"
    },
    "scene" : 0,
    "scenes" : [
        {
            "name" : "Scene",
            "nodes" : [
                18
            ]
        }
    ],
    "nodes" : [
        {
            "name" : "Bone.004",
            "rotation" : [
                0.005264525767415762,
                -0.9981637001037598,
                -0.060333818197250366,
                0.0011632067617028952
            ],
            "scale" : [
                1,
                0.9999998211860657,
                1
            ],
            "translation" : [
                -6.461050361394882e-09,
                2.2360897064208984,
                -7.450580596923828e-09
            ]
        },
        {
            "name" : "Bone.016",
            "rotation" : [
                -0.03331226110458374,
                -0.0021587919909507036,
                0.06462997198104858,
                0.997350811958313
            ],
            "scale" : [
                0.9999998211860657,
                0.9999997615814209,
                0.9999997615814209
            ],
            "translation" : [
                -2.391170710325241e-07,
                1.2016130685806274,
                -7.450580596923828e-09
            ]
        },
        {
            "children" : [
                1
            ],
            "name" : "Bone.010",
            "rotation" : [
                0.16037166118621826,
                0.5892271399497986,
                0.17458145320415497,
                0.7724077105522156
            ],
            "scale" : [
                1.0000001192092896,
                1,
                1
            ],
            "translation" : [
                1.043081283569336e-07,
                0.5947833061218262,
                -4.76837158203125e-07
            ]
        },
        {
            "children" : [
                2
            ],
            "name" : "Bone.006",
            "rotation" : [
                -0.6904137134552002,
                0.37173759937286377,
                0.5447859764099121,
                0.297234445810318
            ],
            "scale" : [
                0.9999999403953552,
                1,
                1
            ],
            "translation" : [
                -2.7303664751343604e-07,
                2.2360897064208984,
                -9.640812237421414e-08
            ]
        },
        {
            "name" : "Bone.017",
            "rotation" : [
                -0.033312391489744186,
                0.0021585256326943636,
                -0.0646299496293068,
                0.997350811958313
            ],
            "scale" : [
                0.9999998807907104,
                1.000000238418579,
                0.9999999403953552
            ],
            "translation" : [
                -1.805601641535759e-07,
                1.2016141414642334,
                1.4901161193847656e-08
            ]
        },
        {
            "children" : [
                4
            ],
            "name" : "Bone.011",
            "rotation" : [
                0.1986863911151886,
                -0.5760303139686584,
                -0.21757778525352478,
                0.7624780535697937
            ],
            "scale" : [
                1,
                0.9999999403953552,
                1
            ],
            "translation" : [
                -1.1920928955078125e-07,
                0.6009262204170227,
                -4.917383193969727e-07
            ]
        },
        {
            "children" : [
                5
            ],
            "name" : "Bone.008",
            "rotation" : [
                -0.6869044899940491,
                -0.3812828063964844,
                -0.5384044647216797,
                0.30480530858039856
            ],
            "scale" : [
                0.9999996423721313,
                0.9999997019767761,
                1
            ],
            "translation" : [
                -1.2566340501507511e-07,
                2.2360897064208984,
                -7.249439715195649e-09
            ]
        },
        {
            "children" : [
                0,
                3,
                6
            ],
            "name" : "Bone.003",
            "rotation" : [
                0.09119107574224472,
                -0.00035453002783469856,
                -0.005379885900765657,
                0.9958188533782959
            ],
            "scale" : [
                1,
                1,
                1.0000001192092896
            ],
            "translation" : [
                -0.023814622312784195,
                -1.05717134475708,
                -0.3989705741405487
            ]
        },
        {
            "name" : "Bone.026",
            "rotation" : [
                -0.13342073559761047,
                0.011901186779141426,
                -0.06658903509378433,
                0.98874831199646
            ],
            "scale" : [
                1,
                1.0000001192092896,
                1
            ],
            "translation" : [
                -6.824848242104053e-08,
                1.255996823310852,
                -7.846392691135406e-08
            ]
        },
        {
            "children" : [
                8
            ],
            "name" : "Bone.014",
            "rotation" : [
                -0.046542659401893616,
                0.0004453761503100395,
                0.016821758821606636,
                0.9987745881080627
            ],
            "scale" : [
                1.0000001192092896,
                1,
                0.9999998807907104
            ],
            "translation" : [
                6.801565177738667e-08,
                2.0767290592193604,
                2.0489096641540527e-08
            ]
        },
        {
            "children" : [
                9
            ],
            "name" : "Bone.012",
            "rotation" : [
                -0.09164993464946747,
                0.5892660021781921,
                -0.43360039591789246,
                0.6755417585372925
            ],
            "scale" : [
                1.0000001192092896,
                0.9999998807907104,
                0.9999999403953552
            ],
            "translation" : [
                4.0978193283081055e-08,
                0.5248270630836487,
                -1.7310958355665207e-07
            ]
        },
        {
            "children" : [
                10
            ],
            "name" : "Bone.007",
            "rotation" : [
                -0.6299465298652649,
                0.3883826732635498,
                0.6381533145904541,
                0.2123364508152008
            ],
            "scale" : [
                1,
                0.9999999403953552,
                0.9999999403953552
            ],
            "translation" : [
                -0.0009673760505393147,
                -1.092771053314209,
                -0.4714937210083008
            ]
        },
        {
            "name" : "Bone.027",
            "rotation" : [
                -0.13342076539993286,
                -0.011901474557816982,
                0.06658898293972015,
                0.98874831199646
            ],
            "scale" : [
                0.9999999403953552,
                1.0000001192092896,
                1.0000001192092896
            ],
            "translation" : [
                -1.885928213596344e-08,
                1.255994439125061,
                1.264270395040512e-07
            ]
        },
        {
            "children" : [
                12
            ],
            "name" : "Bone.015",
            "rotation" : [
                -0.046542733907699585,
                -0.00044527940917760134,
                -0.016821665689349174,
                0.9987745881080627
            ],
            "scale" : [
                1,
                1.0000001192092896,
                0.9999998807907104
            ],
            "translation" : [
                -1.0916846804320812e-07,
                2.0767292976379395,
                -1.695007085800171e-07
            ]
        },
        {
            "children" : [
                13
            ],
            "name" : "Bone.013",
            "rotation" : [
                -0.09639544785022736,
                -0.5874122381210327,
                0.43608173727989197,
                0.6748981475830078
            ],
            "scale" : [
                1.000000238418579,
                0.9999998807907104,
                1
            ],
            "translation" : [
                9.313225746154785e-08,
                0.5318616628646851,
                1.1734664440155029e-07
            ]
        },
        {
            "children" : [
                14
            ],
            "name" : "Bone.009",
            "rotation" : [
                -0.6285433769226074,
                -0.3910657465457916,
                -0.6363834738731384,
                0.21683374047279358
            ],
            "scale" : [
                0.9999999403953552,
                1.0000001192092896,
                1
            ],
            "translation" : [
                -0.0009673797758296132,
                -1.092771053314209,
                -0.4714937210083008
            ]
        },
        {
            "name" : "neutral_bone",
            "rotation" : [
                -0.7071068286895752,
                0,
                0,
                0.7071068286895752
            ]
        },
        {
            "mesh" : 0,
            "name" : "Cube.001",
            "skin" : 0
        },
        {
            "children" : [
                17,
                7,
                11,
                15,
                16
            ],
            "name" : "Armature.001",
            "rotation" : [
                -0.09749447554349899,
                0,
                0,
                0.9952360987663269
            ],
            "scale" : [
                0.6856581568717957,
                0.5447396039962769,
                0.6906672716140747
            ],
            "translation" : [
                0,
                0.6733411550521851,
                0.29275834560394287
            ]
        }
    ],
    "materials" : [
        {
            "doubleSided" : true,
            "name" : "Material.002",
            "pbrMetallicRoughness" : {}
        }
    ],
    "meshes" : [
        {
            "name" : "Cube.001",
            "primitives" : [
                {
                    "attributes" : {
                        "POSITION" : 0,
                        "NORMAL" : 1,
                        "JOINTS_0" : 2,
                        "WEIGHTS_0" : 3
                    },
                    "indices" : 4,
                    "material" : 0
                }
            ]
        }
    ],
    "skins" : [
        {
            "inverseBindMatrices" : 5,
            "joints" : [
                7,
                0,
                3,
                2,
                1,
                6,
                5,
                4,
                11,
                10,
                9,
                8,
                15,
                14,
                13,
                12,
                16
            ],
            "name" : "Armature.001"
        }
    ],
    "accessors" : [
        {
            "bufferView" : 0,
            "componentType" : 5126,
            "count" : 2466,
            "max" : [
                2.323789596557617,
                1.9377840757369995,
                0.5865430235862732
            ],
            "min" : [
                -2.3286736011505127,
                -2.2080161571502686,
                -0.09962502866983414
            ],
            "type" : "VEC3"
        },
        {
            "bufferView" : 1,
            "componentType" : 5126,
            "count" : 2466,
            "type" : "VEC3"
        },
        {
            "bufferView" : 2,
            "componentType" : 5121,
            "count" : 2466,
            "type" : "VEC4"
        },
        {
            "bufferView" : 3,
            "componentType" : 5126,
            "count" : 2466,
            "type" : "VEC4"
        },
        {
            "bufferView" : 4,
            "componentType" : 5123,
            "count" : 3624,
            "type" : "SCALAR"
        },
        {
            "bufferView" : 5,
            "componentType" : 5126,
            "count" : 17,
            "type" : "MAT4"
        }
    ],
    "bufferViews" : [
        {
            "buffer" : 0,
            "byteLength" : 29592,
            "byteOffset" : 0,
            "target" : 34962
        },
        {
            "buffer" : 0,
            "byteLength" : 29592,
            "byteOffset" : 29592,
            "target" : 34962
        },
        {
            "buffer" : 0,
            "byteLength" : 9864,
            "byteOffset" : 59184,
            "target" : 34962
        },
        {
            "buffer" : 0,
            "byteLength" : 39456,
            "byteOffset" : 69048,
            "target" : 34962
        },
        {
            "buffer" : 0,
            "byteLength" : 7248,
            "byteOffset" : 108504,
            "target" : 34963
        },
        {
            "buffer" : 0,
            "byteLength" : 1088,
            "byteOffset" : 115752
        }
    ],
    "buffers" : [
        {
            "byteLength" : 116840,
            "uri" : "human.bin"
        }
    ]
}
